<svg xmlns="http://www.w3.org/2000/svg" width="64" height="64" fill="none"><path fill="#ff9950" d="M2.808 43.706c.983-.408 2.718 1.426 3.17 2.176.372.615.84 1.377 1.29 2.237a.505.505 0 0 0 .825.105 37.06 37.06 0 0 1 3.526-3.25 4.07 4.07 0 0 0 1.106-4.97 4.009 4.009 0 0 0-1.146-1.4 12.65 12.65 0 0 0-1.643-1.08c-1.811-.964-3.8-2.212-3.588-3.258.213-1.046 3.139-.3 4.395.11a22.326 22.326 0 0 1 3.946 1.785 1.272 1.272 0 0 0 1.356.003 1.296 1.296 0 0 0 .607-1.223 18.402 18.402 0 0 0-.554-3.89c-.612-1.967-1.1-4.253-.248-4.858s2.422 2.012 3.025 3.186c1.358 2.665 2.572 5.205 2.458 8.532 0 0-.042.925-.03 1.621.009 1.042 2.261.281 3.11-.227a4.16 4.16 0 0 0 1.945-3.248c.44-3.193-.469-6.272-.712-7.329-.444-1.764-1.487-3.912-.543-4.363.944-.451 2.732 1.141 3.673 2.932a22.918 22.918 0 0 1 1.902 6.44 1.557 1.557 0 0 0 .853 1.184 1.539 1.539 0 0 0 1.457-.054c1.842-1.031 3.536-2.195 3.794-3.376.35-1.595-1.963-7.578-3.733-9.87-1.256-1.635-2.55-3.596-1.932-4.464.618-.868 2.975 1.027 3.949 1.917a22.361 22.361 0 0 1 3.03 3.492.758.758 0 0 0 1.213.026.774.774 0 0 0 .167-.433c.261-4.487 1.291-11.225 2.966-15.193 1.839-4.34 3.221-7.217 4.864-6.58 1.648.638.838 4.2.003 8.486-.215 1.122-.43 2.173-.569 3.24a1.722 1.722 0 0 0 .578 1.59 1.692 1.692 0 0 0 1.655.307c1.82-.604 3.705-.98 5.614-1.12 1.78-.148 3.507.043 3.757 1.081.25 1.039-.793 2.047-2.864 2.677a44.857 44.857 0 0 0-6.959 2.697c-.688.353-1.274.882-1.698 1.532s-.672 1.4-.72 2.175a49.307 49.307 0 0 1-.301 3.012c-.12.892-.3 1.775-.537 2.644a1.252 1.252 0 0 0 .232 1.1 1.23 1.23 0 0 0 1.02.458 41.33 41.33 0 0 1 12.352 1.628c1.412.38 5.28 1.637 5.095 2.665s-5.526.629-6.572.473a81.144 81.144 0 0 0-5.697-.49 26.02 26.02 0 0 1 2.655 4.087c.397.75 1.166 3.18.337 3.848-.567.472-2.87-1.956-3.672-2.738-1.695-1.653-4.56-4.417-7.6-4.978-.327-.025-.657.037-.954.181s-.55.364-.737.638c-1.926 2.632-4.11 4.333-7.489 6.353a61.59 61.59 0 0 1 12.722 5.516c.883.592 3.948 2.824 3.45 3.773-.498.949-5.107-.878-6.117-1.234-1.916-.673-4.612-1.641-7.482-2.531.416.7.833 1.395 1.132 1.954.397.749 1.172 3.18.337 3.847-.568.472-2.867-1.962-3.666-2.735-1.696-1.653-4.54-4.576-7.606-4.98a2.63 2.63 0 0 0-1.426.277c-1.012.377-.872.354-1.964.707a23.5 23.5 0 0 0-4.308 1.847.5.5 0 0 0-.053.845.49.49 0 0 0 .317.088 31.197 31.197 0 0 1 3.423-.058c1.059.085 4.826.54 4.869 1.616.044 1.076-4.895 1.73-5.955 1.915-1.061.184-2.318.397-3.686.649a.483.483 0 0 0-.397.399.485.485 0 0 0 .246.504 32.871 32.871 0 0 1 2.801 1.778c.724.488 2.472 2.307 2.028 3.277-.3.652-3.446-.449-4.508-.777-2.254-.707-6.53-2.841-9.03-1-.383.27-.734.582-1.048.93-1.777 2.427-1.878 3.378-1.919 3.466-.352.734-.966 1.308-1.719 1.608s-1.59.304-2.342.01l-.233-.09A3.195 3.195 0 0 1 .467 61.7a3.243 3.243 0 0 1 .138-2.464 38.959 38.959 0 0 1 2.659-4.805c.716-1.12.97-2.475.706-3.775a51.966 51.966 0 0 0-.57-2.374c-.3-1.092-1.253-4.306-.592-4.576z"/></svg>