<svg xmlns="http://www.w3.org/2000/svg" width="43" height="64" fill="none"><path fill="#ff8cff" d="M23.655 55.56c-.02-.93-2.103-1.671-2.863-1.768-.624-.081-1.4-.186-2.248-.242a.442.442 0 0 1-.375-.624c.537-1.294.99-2.62 1.356-3.973a3.562 3.562 0 0 1 3.588-2.643 3.51 3.51 0 0 1 1.527.423c.505.273.988.586 1.445.934 1.412 1.109 3.115 2.26 3.878 1.72.762-.54-.87-2.619-1.643-3.48a19.537 19.537 0 0 0-2.824-2.528 1.114 1.114 0 0 1-.482-1.085 1.135 1.135 0 0 1 .764-.918 16.111 16.111 0 0 1 3.311-.932c1.792-.206 3.795-.623 3.978-1.52.182-.896-2.467-1.228-3.621-1.295-2.614-.146-5.077-.22-7.701 1.048 0 0-.726.36-1.288.598-.837.361-1.024-1.712-.917-2.572a3.642 3.642 0 0 1 1.912-2.705c2.402-1.482 5.19-1.843 6.121-2.022 1.57-.268 3.658-.193 3.686-1.108.027-.915-1.88-1.784-3.647-1.904a20.061 20.061 0 0 0-5.83.754 1.363 1.363 0 0 1-1.25-.264 1.347 1.347 0 0 1-.47-1.186c.173-1.84.506-3.608 1.36-4.232 1.154-.844 6.763-1.108 9.224-.5 1.753.427 3.782.77 4.258-.033.477-.801-1.875-2.018-2.931-2.484a19.57 19.57 0 0 0-3.868-1.191.664.664 0 0 1-.45-.963.677.677 0 0 1 .287-.286c3.502-1.796 8.532-5.003 11.118-7.747C41.885 7.824 43.7 5.7 42.61 4.61c-1.095-1.095-3.661.813-6.798 2.998-.822.569-1.588 1.113-2.394 1.601a1.507 1.507 0 0 1-1.476.1 1.481 1.481 0 0 1-.832-1.217A20.317 20.317 0 0 0 30.023 3.2C29.51 1.722 28.748.408 27.828.574s-1.359 1.359-1.131 3.24c.282 2.162.382 4.345.302 6.526a3.927 3.927 0 0 1-2.114 3.248c-.742.393-1.512.821-2.305 1.306-.672.412-1.316.868-1.928 1.364a1.097 1.097 0 0 1-.962.204 1.077 1.077 0 0 1-.728-.655 36.18 36.18 0 0 0-5.671-9.315c-.805-.996-3.178-3.65-3.937-3.137-.758.512 1.451 4.647 1.946 5.429a70.944 70.944 0 0 1 2.407 4.388 22.775 22.775 0 0 0-4.212-.68c-.74-.053-2.958.19-3.2 1.09-.178.622 2.58 1.607 3.49 1.973 1.924.773 5.15 2.09 6.674 4.325.137.254.203.54.193.828-.01.289-.097.57-.25.816-1.427 2.473-2.017 4.823-2.44 8.244a53.916 53.916 0 0 0-8.915-8.237c-.786-.498-3.657-2.163-4.241-1.428-.584.734 2.509 3.779 3.15 4.461 1.218 1.297 2.946 3.113 4.674 5.096-.708-.084-1.412-.173-1.966-.215-.74-.053-2.961.186-3.2 1.09-.177.622 2.585 1.603 3.487 1.97 1.924.772 5.27 2.017 6.678 4.328.209.378.306.808.282 1.24.056.944.025.825.128 1.823A20.57 20.57 0 0 1 14.083 44a.437.437 0 0 1-.657.342.429.429 0 0 1-.183-.223 27.327 27.327 0 0 0-1.163-2.762c-.443-.818-2.14-3.673-3.016-3.327-.877.345.345 4.531.572 5.446.227.914.502 1.996.784 3.18a.422.422 0 0 1-.18.46.424.424 0 0 1-.49-.019 28.769 28.769 0 0 0-2.414-1.615c-.647-.407-2.722-1.163-3.342-.464-.415.47 1.579 2.6 2.217 3.334 1.363 1.555 4.584 4.225 3.993 6.878-.08.402-.206.794-.374 1.168-1.314 2.281-2.04 2.698-2.096 2.762a2.833 2.833 0 0 0-.68 1.945c.026.71.319 1.38.82 1.879l.155.155c.565.483 1.3.72 2.045.66a2.839 2.839 0 0 0 1.924-.982 34.1 34.1 0 0 0 2.908-3.828 4.486 4.486 0 0 1 2.773-1.9 45.518 45.518 0 0 1 2.103-.383c.98-.147 3.89-.52 3.873-1.145z"/></svg>